name C:\Users\u0101727\Documents\MyRepositories\upper-imu-dc\Results\main_tracking\Case_22\SHRUG01_orientations_groundFrame.mot
datacolumns 13
datarows 40
range 0.71000000 1.10000000
endheader 
time	radius_imu_[0][0]	radius_imu_[0][1]	radius_imu_[0][2]	radius_imu_[1][0]	radius_imu_[1][1]	radius_imu_[1][2]	radius_imu_[2][0]	radius_imu_[2][1]	radius_imu_[2][2]	radius_imu_x	radius_imu_y	radius_imu_z	
          0.71000000	          0.56567000	         -0.11585080	          0.81645333	         -0.18572066	          0.94674802	          0.26301335	         -0.80344588	         -0.30041101	          0.51403107	         -0.47293854	          0.95524171	          0.20200935	
          0.72000000	          0.55987946	         -0.11660252	          0.82032850	         -0.18687731	          0.94676824	          0.26211978	         -0.80722479	         -0.30005626	          0.50828572	         -0.47612366	          0.96198519	          0.20532857	
          0.73000000	          0.55428300	         -0.11742892	          0.82400292	         -0.18899145	          0.94638212	          0.26199831	         -0.81058781	         -0.30095072	          0.50237045	         -0.48071827	          0.96844013	          0.20877042	
          0.74000000	          0.54885887	         -0.11831363	          0.82749974	         -0.19172524	          0.94572529	          0.26238351	         -0.81363098	         -0.30266410	          0.49638601	         -0.48625531	          0.97463987	          0.21231416	
          0.75000000	          0.54378150	         -0.11922891	          0.83071424	         -0.19479231	          0.94489176	          0.26312642	         -0.81630732	         -0.30490003	          0.49058978	         -0.49230077	          0.98038945	          0.21584326	
          0.76000000	          0.53942243	         -0.12014230	          0.83342022	         -0.19793106	          0.94394399	          0.26418372	         -0.81844165	         -0.30746637	          0.48540467	         -0.49842145	          0.98526799	          0.21914702	
          0.77000000	          0.53632367	         -0.12102305	          0.83529058	         -0.20089036	          0.94291946	          0.26560487	         -0.81975605	         -0.31025200	          0.48139766	         -0.50417578	          0.98866108	          0.22193591	
          0.78000000	          0.53516411	         -0.12184557	          0.83591449	         -0.20342037	          0.94183572	          0.26751755	         -0.81988995	         -0.31320783	          0.47925080	         -0.50911659	          0.98979683	          0.22386278	
          0.79000000	          0.53674422	         -0.12258210	          0.83479295	         -0.20526090	          0.94069606	          0.27010902	         -0.81839697	         -0.31632981	          0.47975186	         -0.51278300	          0.98775661	          0.22453004	
          0.80000000	          0.54198566	         -0.12317170	          0.83131238	         -0.20613398	          0.93949758	          0.27359291	         -0.81471487	         -0.31964516	          0.48380435	         -0.51466789	          0.98146475	          0.22346456	
          0.81000000	          0.55190149	         -0.12344884	          0.82472124	         -0.20576592	          0.93824244	          0.27813938	         -0.80812445	         -0.32320506	          0.49241584	         -0.51417020	          0.96970912	          0.22005685	
          0.82000000	          0.56743710	         -0.12301326	          0.81417620	         -0.20398682	          0.93695553	          0.28373176	         -0.79774966	         -0.32708114	          0.50657024	         -0.51056711	          0.95130894	          0.21348404	
          0.83000000	          0.58901775	         -0.12105117	          0.79900232	         -0.20096869	          0.93571386	          0.28991578	         -0.78273219	         -0.33133999	          0.52682457	         -0.50307965	          0.92563426	          0.20269146	
          0.84000000	          0.61454909	         -0.11645275	          0.78023598	         -0.19782342	          0.93469332	          0.29532067	         -0.76367226	         -0.33583800	          0.55137784	         -0.49172417	          0.89504300	          0.18727256	
          0.85000000	          0.62028697	         -0.11585567	          0.77577158	         -0.19723112	          0.93421660	          0.29721917	         -0.75917321	         -0.33736747	          0.55663204	         -0.49044498	          0.88793693	          0.18464993	
          0.86000000	          0.60303517	         -0.11912337	          0.78877006	         -0.20043283	          0.93444064	          0.29435925	         -0.77212386	         -0.33560440	          0.53962434	         -0.49937343	          0.90880550	          0.19502874	
          0.87000000	          0.58898885	         -0.11802835	          0.79947573	         -0.20509688	          0.93505693	          0.28914324	         -0.78168242	         -0.33427212	          0.52653086	         -0.50218866	          0.92642195	          0.19777196	
          0.88000000	          0.58145272	         -0.11561222	          0.80532388	         -0.20857311	          0.93558876	          0.28490512	         -0.78639048	         -0.33362777	          0.51988703	         -0.50131681	          0.93622159	          0.19627358	
          0.89000000	          0.58400273	         -0.11292713	          0.80385836	         -0.20955682	          0.93573622	          0.28369644	         -0.78423641	         -0.33413350	          0.52280786	         -0.49717496	          0.93375368	          0.19101006	
          0.90000000	          0.59698951	         -0.11021616	          0.79464201	         -0.20793902	          0.93540856	          0.28595839	         -0.77483217	         -0.33595124	          0.53551085	         -0.49046981	          0.91841766	          0.18256425	
          0.91000000	          0.61758652	         -0.10663446	          0.77924065	         -0.20494784	          0.93471813	          0.29034186	         -0.75933081	         -0.33901490	          0.55541481	         -0.48167979	          0.89345328	          0.17097740	
          0.92000000	          0.62769559	         -0.10576951	          0.77123995	         -0.20349414	          0.93398379	          0.29370805	         -0.75139097	         -0.34130205	          0.56473403	         -0.47958390	          0.88078680	          0.16693627	
          0.93000000	          0.62680771	         -0.10646544	          0.77186606	         -0.20472213	          0.93331352	          0.29498258	         -0.75179848	         -0.34291542	          0.56321228	         -0.48246680	          0.88177099	          0.16824770	
          0.94000000	          0.62693207	         -0.10729571	          0.77165005	         -0.20576914	          0.93249429	          0.29683910	         -0.75140884	         -0.34487972	          0.56253244	         -0.48554838	          0.88143132	          0.16950189	
          0.95000000	          0.62856882	         -0.10828540	          0.77017888	         -0.20639616	          0.93153074	          0.29941793	         -0.74986790	         -0.34716674	          0.56318149	         -0.48864931	          0.87912156	          0.17059842	
          0.96000000	          0.62903836	         -0.10971005	          0.76959369	         -0.20722385	          0.93050442	          0.30202617	         -0.74924563	         -0.34946421	          0.56258843	         -0.49269200	          0.87820459	          0.17267232	
          0.97000000	          0.63069124	         -0.11057717	          0.76811539	         -0.20799422	          0.92949590	          0.30459116	         -0.74764093	         -0.35186654	          0.56322551	         -0.49575080	          0.87589266	          0.17356288	
          0.98000000	          0.63059642	         -0.11097415	          0.76813598	         -0.20949054	          0.92864939	          0.30614379	         -0.74730306	         -0.35397040	          0.56235495	         -0.49853054	          0.87592482	          0.17419914	
          0.99000000	          0.62058040	         -0.11364678	          0.77586364	         -0.21246283	          0.92806077	          0.30588028	         -0.75481091	         -0.35466549	          0.55179061	         -0.50617009	          0.88808284	          0.18112287	
          1.00000000	          0.60338502	         -0.11558668	          0.78902867	         -0.21810922	          0.92779151	          0.30270659	         -0.76704295	         -0.35474305	          0.53460498	         -0.51521447	          0.90922633	          0.18927075	
          1.01000000	          0.58044466	         -0.11781034	          0.80573241	         -0.22519224	          0.92766605	          0.29786600	         -0.78254230	         -0.35433942	          0.51192883	         -0.52696730	          0.93691103	          0.20024553	
          1.02000000	          0.56115179	         -0.11862720	          0.81916803	         -0.23206929	          0.92743260	          0.29327907	         -0.79451401	         -0.35467782	          0.49290073	         -0.53673961	          0.95995895	          0.20833220	
          1.03000000	          0.54675098	         -0.11901888	          0.82879302	         -0.23792328	          0.92695757	          0.29007272	         -0.80278009	         -0.35578670	          0.47849760	         -0.54497728	          0.97694719	          0.21434005	
          1.04000000	          0.53762768	         -0.11964397	          0.83465070	         -0.24237153	          0.92617613	          0.28888376	         -0.80759675	         -0.35760747	          0.46893963	         -0.55212740	          0.98749830	          0.21897229	
          1.05000000	          0.53392295	         -0.12086840	          0.83684952	         -0.24521389	          0.92505992	          0.29005912	         -0.80919493	         -0.36007634	          0.46427211	         -0.55842744	          0.99150264	          0.22262563	
          1.06000000	          0.53564074	         -0.12280942	          0.83546804	         -0.24635647	          0.92360307	          0.29371048	         -0.80771126	         -0.36314626	          0.46446454	         -0.56387700	          0.98898393	          0.22538039	
          1.07000000	          0.54249740	         -0.12531564	          0.83065791	         -0.24586415	          0.92182724	          0.29964204	         -0.80327292	         -0.36678403	          0.46927826	         -0.56826025	          0.98028827	          0.22701573	
          1.08000000	          0.55345138	         -0.12791652	          0.82299996	         -0.24414519	          0.91981198	          0.30714661	         -0.79629435	         -0.37092220	          0.47784101	         -0.57128284	          0.96667222	          0.22713673	
          1.09000000	          0.56550724	         -0.12994386	          0.81444224	         -0.24229508	          0.91775756	          0.31466514	         -0.78834932	         -0.37528077	          0.48751378	         -0.57316906	          0.95176729	          0.22586213	
          1.10000000	          0.66958632	         -0.08007636	          0.73840499	         -0.24259993	          0.91606338	          0.31933236	         -0.70199675	         -0.39295758	          0.59395699	         -0.49330078	          0.83070206	          0.11902551	
